<svg xmlns="http://www.w3.org/2000/svg" xmlns:xlink="http://www.w3.org/1999/xlink" width="50" height="50" viewBox="0 0 50 50"><rect width="100%" height="100%" fill="#DDDDDD"/><path d="M8.79 22.26L8.51 23.91Q8.77 23.86 9.01 23.83Q9.26 23.81 9.48 23.81L9.48 23.81Q10.11 23.81 10.59 23.99Q11.07 24.18 11.39 24.51Q11.71 24.84 11.88 25.28Q12.04 25.73 12.04 26.24L12.04 26.24Q12.04 26.87 11.82 27.39Q11.60 27.92 11.20 28.29Q10.81 28.66 10.27 28.86Q9.72 29.06 9.09 29.06L9.09 29.06Q8.71 29.06 8.38 28.99Q8.04 28.91 7.75 28.78Q7.45 28.65 7.20 28.48Q6.95 28.32 6.75 28.13L6.75 28.13L7.17 27.55Q7.30 27.37 7.52 27.37L7.52 27.37Q7.66 27.37 7.80 27.45Q7.94 27.54 8.13 27.65Q8.31 27.75 8.56 27.84Q8.81 27.93 9.16 27.93L9.16 27.93Q9.54 27.93 9.82 27.80Q10.11 27.68 10.30 27.47Q10.49 27.25 10.58 26.95Q10.68 26.65 10.68 26.30L10.68 26.30Q10.68 25.65 10.30 25.28Q9.93 24.92 9.19 24.92L9.19 24.92Q8.62 24.92 8.03 25.13L8.03 25.13L7.18 24.88L7.84 21.02L11.77 21.02L11.77 21.60Q11.77 21.89 11.59 22.07Q11.41 22.26 10.97 22.26L10.97 22.26L8.79 22.26ZM18.76 25L18.76 25Q18.76 26.04 18.54 26.81Q18.31 27.57 17.92 28.07Q17.53 28.58 16.99 28.82Q16.46 29.06 15.83 29.06L15.83 29.06Q15.21 29.06 14.68 28.82Q14.15 28.58 13.76 28.07Q13.37 27.57 13.15 26.81Q12.93 26.04 12.93 25L12.93 25Q12.93 23.96 13.15 23.19Q13.37 22.43 13.76 21.93Q14.15 21.43 14.68 21.18Q15.21 20.94 15.83 20.94L15.83 20.94Q16.46 20.94 16.99 21.18Q17.53 21.43 17.92 21.93Q18.31 22.43 18.54 23.19Q18.76 23.96 18.76 25ZM17.36 25L17.36 25Q17.36 24.14 17.23 23.57Q17.10 23.00 16.89 22.67Q16.68 22.33 16.41 22.20Q16.13 22.06 15.83 22.06L15.83 22.06Q15.54 22.06 15.27 22.20Q15.00 22.33 14.79 22.67Q14.58 23.00 14.46 23.57Q14.33 24.14 14.33 25L14.33 25Q14.33 25.86 14.46 26.43Q14.58 27.00 14.79 27.33Q15.00 27.67 15.27 27.80Q15.54 27.94 15.83 27.94L15.83 27.94Q16.13 27.94 16.41 27.80Q16.68 27.67 16.89 27.33Q17.10 27.00 17.23 26.43Q17.36 25.86 17.36 25ZM27.49 27.16L26.77 27.87L24.91 26.00L23.03 27.88L22.31 27.17L24.19 25.28L22.40 23.49L23.11 22.77L24.90 24.57L26.69 22.78L27.41 23.50L25.62 25.29L27.49 27.16ZM33.27 22.26L32.99 23.91Q33.26 23.86 33.50 23.83Q33.74 23.81 33.97 23.81L33.97 23.81Q34.59 23.81 35.07 23.99Q35.55 24.18 35.88 24.51Q36.20 24.84 36.37 25.28Q36.53 25.73 36.53 26.24L36.53 26.24Q36.53 26.87 36.31 27.39Q36.09 27.92 35.69 28.29Q35.29 28.66 34.75 28.86Q34.21 29.06 33.57 29.06L33.57 29.06Q33.20 29.06 32.86 28.99Q32.53 28.91 32.23 28.78Q31.94 28.65 31.69 28.48Q31.44 28.32 31.24 28.13L31.24 28.13L31.66 27.55Q31.79 27.37 32.00 27.37L32.00 27.37Q32.14 27.37 32.28 27.45Q32.43 27.54 32.61 27.65Q32.80 27.75 33.05 27.84Q33.30 27.93 33.65 27.93L33.65 27.93Q34.02 27.93 34.31 27.80Q34.59 27.68 34.78 27.47Q34.97 27.25 35.07 26.95Q35.17 26.65 35.17 26.30L35.17 26.30Q35.17 25.65 34.79 25.28Q34.41 24.92 33.68 24.92L33.68 24.92Q33.11 24.92 32.52 25.13L32.52 25.13L31.67 24.88L32.33 21.02L36.26 21.02L36.26 21.60Q36.26 21.89 36.07 22.07Q35.89 22.26 35.46 22.26L35.46 22.26L33.27 22.26ZM43.25 25L43.25 25Q43.25 26.04 43.02 26.81Q42.80 27.57 42.41 28.07Q42.01 28.58 41.48 28.82Q40.94 29.06 40.32 29.06L40.32 29.06Q39.70 29.06 39.17 28.82Q38.64 28.58 38.25 28.07Q37.86 27.57 37.64 26.81Q37.42 26.04 37.42 25L37.42 25Q37.42 23.96 37.64 23.19Q37.86 22.43 38.25 21.93Q38.64 21.43 39.17 21.18Q39.70 20.94 40.32 20.94L40.32 20.94Q40.94 20.94 41.48 21.18Q42.01 21.43 42.41 21.93Q42.80 22.43 43.02 23.19Q43.25 23.96 43.25 25ZM41.84 25L41.84 25Q41.84 24.14 41.72 23.57Q41.59 23.00 41.38 22.67Q41.17 22.33 40.89 22.20Q40.62 22.06 40.32 22.06L40.32 22.06Q40.03 22.06 39.76 22.20Q39.48 22.33 39.28 22.67Q39.07 23.00 38.94 23.57Q38.82 24.14 38.82 25L38.82 25Q38.82 25.86 38.94 26.43Q39.07 27.00 39.28 27.33Q39.48 27.67 39.76 27.80Q40.03 27.94 40.32 27.94L40.32 27.94Q40.62 27.94 40.89 27.80Q41.17 27.67 41.38 27.33Q41.59 27.00 41.72 26.43Q41.84 25.86 41.84 25Z" fill="#999999"/></svg>